<svg xmlns="http://www.w3.org/2000/svg" version="1.1" xmlns:xlink="http://www.w3.org/1999/xlink" xmlns:svgjs="http://svgjs.com/svgjs" width="24" height="24" x="0" y="0" viewBox="0 0 512 512" style="enable-background:new 0 0 512 512" xml:space="preserve" class=""><g><path fill="#e63f32" fill-rule="evenodd" d="M256.082.061c141.383 0 256 114.659 256 256.035s-114.616 255.964-256 255.964S.083 397.473.083 256.1 114.705.061 256.082.061zM213.35 110.309h85.461v16.957h13.249v-19.049a11.12 11.12 0 0 0-3.267-7.884l-.021.015-.012-.015a11.071 11.071 0 0 0-7.854-3.272h-89.651a11.053 11.053 0 0 0-7.328 2.777 5.741 5.741 0 0 0-.559.5 11.116 11.116 0 0 0-3.267 7.884v19.049h13.249zm36.1 130.659v119.7a6.627 6.627 0 0 0 13.254 0v-119.7a6.627 6.627 0 1 0-13.254 0zm62.65-.545-10 119.7a6.622 6.622 0 0 0 13.2 1.087l10-119.7a6.622 6.622 0 0 0-13.2-1.087zm-102.046 119.7-10-119.7a6.621 6.621 0 1 0-13.2 1.087l10 119.7a6.622 6.622 0 1 0 13.2-1.087zm-79.315-173.552 36.288 220.957a8.9 8.9 0 0 0 8.9 7.532h160.306a8.9 8.9 0 0 0 8.9-7.532l36.29-220.957zm256.8-46.059H124.627a16.474 16.474 0 0 0-16.4 16.409v16.4H403.94v-16.4a16.479 16.479 0 0 0-16.4-16.409z" data-original="#e63f32" class=""></path></g></svg>